<svg xmlns="http://www.w3.org/2000/svg" xmlns:xlink="http://www.w3.org/1999/xlink" width="400" zoomAndPan="magnify" viewBox="0 0 300 74.999997" height="100" preserveAspectRatio="xMidYMid meet" version="1.0"><defs><g/></defs><g fill="#ffffff" fill-opacity="1"><g transform="translate(15.288055, 49.678748)"><g><path d="M 11.738281 0.339844 L 15.121094 0.339844 L 17.65625 -0.269531 L 20.058594 -1.488281 L 21.105469 -2.300781 L 21.613281 -2.839844 L 22.121094 -3.246094 L 22.527344 -3.722656 L 22.867188 -4.296875 L 23.171875 -4.90625 L 23.574219 -5.378906 L 24.253906 -7.375 L 24.523438 -8.660156 L 24.558594 -9.234375 L 24.691406 -9.84375 L 24.691406 -10.519531 L 24.761719 -11.164062 L 24.691406 -12.449219 L 24.355469 -13.023438 L 23.710938 -13.359375 L 23 -13.394531 L 22.289062 -13.496094 L 17.722656 -13.394531 L 15.695312 -13.53125 L 14.410156 -13.429688 L 13.734375 -13.089844 L 13.429688 -12.449219 L 13.429688 -9.234375 L 13.734375 -8.691406 L 14.34375 -8.320312 L 15.324219 -8.253906 L 17.015625 -8.386719 L 17.621094 -8.289062 L 18.128906 -8.050781 L 18.230469 -7.476562 L 17.894531 -6.898438 L 17.386719 -6.324219 L 16.914062 -5.953125 L 15.796875 -5.511719 L 14.476562 -5.210938 L 13.597656 -5.175781 L 11.871094 -5.378906 L 10.046875 -6.121094 L 9.03125 -7.070312 L 8.660156 -7.542969 L 8.015625 -8.761719 L 7.746094 -9.742188 L 7.578125 -10.824219 L 7.542969 -12.785156 L 7.78125 -14.105469 L 8.320312 -15.324219 L 9.371094 -16.914062 L 10.554688 -17.757812 L 11.128906 -18.0625 L 11.769531 -18.128906 L 12.347656 -18.402344 L 14.410156 -18.46875 L 15.660156 -18.128906 L 16.304688 -17.859375 L 16.945312 -17.417969 L 17.351562 -16.980469 L 17.792969 -16.40625 L 18.503906 -15.832031 L 19.3125 -15.59375 L 20.363281 -15.558594 L 21.378906 -15.695312 L 23 -15.59375 L 23.847656 -15.964844 L 24.050781 -16.539062 L 23.574219 -17.925781 L 23.273438 -18.535156 L 21.917969 -20.496094 L 21.175781 -21.105469 L 20.632812 -21.613281 L 20.125 -22.019531 L 17.757812 -23.273438 L 17.046875 -23.40625 L 15.457031 -23.847656 L 12.3125 -23.980469 L 11.636719 -23.949219 L 11.0625 -23.746094 L 10.417969 -23.710938 L 7.8125 -22.765625 L 5.953125 -21.613281 L 4.464844 -20.296875 L 4.023438 -19.753906 L 3.519531 -19.246094 L 3.144531 -18.738281 L 1.894531 -16.203125 L 1.285156 -12.851562 L 1.25 -11.769531 L 1.421875 -9.402344 L 2.367188 -6.222656 L 2.976562 -5.074219 L 3.753906 -3.921875 L 5.109375 -2.503906 L 6.222656 -1.726562 L 8.558594 -0.371094 L 9.132812 -0.203125 L 11.0625 0.136719 Z M 11.738281 0.339844 "/></g></g></g><g fill="#ffffff" fill-opacity="1"><g transform="translate(39.502844, 49.678748)"><g><path d="M 2.605469 -1.082031 L 2.839844 -0.339844 L 3.519531 0 L 4.160156 0.0351562 L 5.546875 -0.0664062 L 6.257812 0 L 7.273438 0 L 8.320312 -0.339844 L 8.558594 -0.980469 L 8.625 -1.691406 L 8.488281 -2.402344 L 8.589844 -3.855469 L 8.523438 -5.953125 L 8.828125 -6.628906 L 9.503906 -6.96875 L 10.113281 -6.96875 L 10.722656 -7 L 11.566406 -6.730469 L 12.109375 -6.15625 L 12.988281 -4.972656 L 13.226562 -4.328125 L 14.171875 -2.636719 L 14.613281 -1.996094 L 14.917969 -1.421875 L 15.324219 -0.878906 L 16 -0.269531 L 16.84375 -0.0664062 L 18.0625 0 L 18.808594 -0.0664062 L 19.484375 0 L 20.835938 0 L 21.582031 -0.0664062 L 22.289062 -0.238281 L 22.425781 -0.945312 L 21.984375 -1.792969 L 20.902344 -3.449219 L 20.597656 -4.023438 L 20.195312 -4.632812 L 19.855469 -5.242188 L 19.414062 -5.785156 L 18.402344 -7.542969 L 18.300781 -8.355469 L 18.671875 -9.066406 L 19.617188 -9.976562 L 20.023438 -10.554688 L 20.261719 -11.195312 L 20.632812 -11.804688 L 20.871094 -12.378906 L 21.242188 -13.664062 L 21.277344 -16.335938 L 21.105469 -16.980469 L 21.003906 -17.621094 L 20.835938 -18.300781 L 19.921875 -20.160156 L 19.449219 -20.667969 L 19.144531 -21.175781 L 17.453125 -22.460938 L 16.269531 -23.070312 L 13.460938 -23.644531 L 12.617188 -23.710938 L 11.636719 -23.675781 L 10.890625 -23.710938 L 10.214844 -23.644531 L 9.472656 -23.710938 L 8.894531 -23.644531 L 6.867188 -23.710938 L 6.222656 -23.609375 L 4.835938 -23.746094 L 4.195312 -23.644531 L 3.449219 -23.675781 L 2.808594 -23.375 L 2.535156 -22.664062 L 2.433594 -13.191406 L 2.535156 -12.210938 L 2.535156 -10.519531 L 2.46875 -9.808594 L 2.433594 -8.523438 L 2.535156 -7.78125 L 2.433594 -6.394531 L 2.570312 -4.429688 L 2.503906 -3.722656 Z M 9.503906 -12.449219 L 8.929688 -12.753906 L 8.589844 -13.460938 L 8.488281 -17.25 L 8.894531 -17.925781 L 9.574219 -18.265625 L 10.113281 -18.300781 L 11.972656 -18.265625 L 13.53125 -18.0625 L 14.578125 -17.417969 L 14.917969 -16.914062 L 15.152344 -16.371094 L 15.222656 -15.390625 L 15.121094 -14.476562 L 14.847656 -13.800781 L 14.476562 -13.226562 L 14.070312 -12.820312 L 13.5625 -12.582031 L 10.925781 -12.347656 L 10.25 -12.449219 Z M 9.503906 -12.449219 "/></g></g></g><g fill="#ffffff" fill-opacity="1"><g transform="translate(61.248754, 49.678748)"><g><path d="M 2.433594 -0.980469 L 2.875 -0.339844 L 3.519531 0.0351562 L 11.164062 -0.0351562 L 11.769531 0.0664062 L 13.835938 -0.0351562 L 15.898438 0.101562 L 16.539062 0.0351562 L 17.25 -0.304688 L 17.554688 -0.945312 L 17.621094 -1.589844 L 17.589844 -3.6875 L 17.65625 -4.328125 L 17.21875 -5.007812 L 16.203125 -5.34375 L 11.738281 -5.410156 L 11.09375 -5.308594 L 10.351562 -5.378906 L 9.605469 -5.308594 L 8.894531 -5.714844 L 8.589844 -6.765625 L 8.625 -8.421875 L 8.929688 -9.132812 L 9.539062 -9.503906 L 10.859375 -9.503906 L 11.535156 -9.574219 L 13.328125 -9.472656 L 14.242188 -9.539062 L 14.949219 -9.472656 L 15.558594 -9.503906 L 16.234375 -9.875 L 16.574219 -10.519531 L 16.640625 -13.191406 L 16.574219 -13.867188 L 16.269531 -14.511719 L 15.695312 -14.882812 L 14.34375 -14.917969 L 13.664062 -14.847656 L 12.953125 -14.847656 L 12.175781 -14.917969 L 9.503906 -14.882812 L 8.929688 -15.253906 L 8.523438 -15.863281 L 8.457031 -16.914062 L 8.792969 -17.894531 L 9.84375 -18.199219 L 16.335938 -18.230469 L 17.046875 -18.605469 L 17.417969 -19.210938 L 17.351562 -20.597656 L 17.25 -21.242188 L 17.285156 -21.984375 L 17.386719 -22.628906 L 17.046875 -23.304688 L 16.335938 -23.609375 L 13.632812 -23.644531 L 13.023438 -23.574219 L 12.347656 -23.675781 L 10.859375 -23.609375 L 10.179688 -23.675781 L 8.863281 -23.644531 L 8.253906 -23.710938 L 3.820312 -23.609375 L 2.839844 -23.375 L 2.503906 -22.628906 L 2.570312 -21.277344 L 2.433594 -20.296875 L 2.570312 -18.570312 L 2.503906 -17.859375 L 2.570312 -17.25 L 2.570312 -11.195312 L 2.46875 -10.484375 L 2.570312 -9.167969 L 2.503906 -7.8125 L 2.605469 -7.101562 L 2.535156 -6.359375 L 2.570312 -5.714844 L 2.46875 -5.109375 L 2.535156 -4.328125 L 2.535156 -3.652344 L 2.605469 -2.332031 L 2.570312 -1.65625 Z M 2.433594 -0.980469 "/></g></g></g><g fill="#ffffff" fill-opacity="1"><g transform="translate(78.93622, 49.678748)"><g><path d="M 2.433594 -0.980469 L 2.875 -0.339844 L 3.519531 0.0351562 L 11.164062 -0.0351562 L 11.769531 0.0664062 L 13.835938 -0.0351562 L 15.898438 0.101562 L 16.539062 0.0351562 L 17.25 -0.304688 L 17.554688 -0.945312 L 17.621094 -1.589844 L 17.589844 -3.6875 L 17.65625 -4.328125 L 17.21875 -5.007812 L 16.203125 -5.34375 L 11.738281 -5.410156 L 11.09375 -5.308594 L 10.351562 -5.378906 L 9.605469 -5.308594 L 8.894531 -5.714844 L 8.589844 -6.765625 L 8.625 -8.421875 L 8.929688 -9.132812 L 9.539062 -9.503906 L 10.859375 -9.503906 L 11.535156 -9.574219 L 13.328125 -9.472656 L 14.242188 -9.539062 L 14.949219 -9.472656 L 15.558594 -9.503906 L 16.234375 -9.875 L 16.574219 -10.519531 L 16.640625 -13.191406 L 16.574219 -13.867188 L 16.269531 -14.511719 L 15.695312 -14.882812 L 14.34375 -14.917969 L 13.664062 -14.847656 L 12.953125 -14.847656 L 12.175781 -14.917969 L 9.503906 -14.882812 L 8.929688 -15.253906 L 8.523438 -15.863281 L 8.457031 -16.914062 L 8.792969 -17.894531 L 9.84375 -18.199219 L 16.335938 -18.230469 L 17.046875 -18.605469 L 17.417969 -19.210938 L 17.351562 -20.597656 L 17.25 -21.242188 L 17.285156 -21.984375 L 17.386719 -22.628906 L 17.046875 -23.304688 L 16.335938 -23.609375 L 13.632812 -23.644531 L 13.023438 -23.574219 L 12.347656 -23.675781 L 10.859375 -23.609375 L 10.179688 -23.675781 L 8.863281 -23.644531 L 8.253906 -23.710938 L 3.820312 -23.609375 L 2.839844 -23.375 L 2.503906 -22.628906 L 2.570312 -21.277344 L 2.433594 -20.296875 L 2.570312 -18.570312 L 2.503906 -17.859375 L 2.570312 -17.25 L 2.570312 -11.195312 L 2.46875 -10.484375 L 2.570312 -9.167969 L 2.503906 -7.8125 L 2.605469 -7.101562 L 2.535156 -6.359375 L 2.570312 -5.714844 L 2.46875 -5.109375 L 2.535156 -4.328125 L 2.535156 -3.652344 L 2.605469 -2.332031 L 2.570312 -1.65625 Z M 2.433594 -0.980469 "/></g></g></g><g fill="#ffffff" fill-opacity="1"><g transform="translate(96.623692, 49.678748)"><g><path d="M 19.957031 -0.542969 L 20.9375 -0.101562 L 21.816406 0.167969 L 22.59375 -0.203125 L 22.898438 -0.914062 L 23.070312 -10.113281 L 22.933594 -11.0625 L 23 -11.804688 L 22.867188 -15.863281 L 22.96875 -17.21875 L 22.898438 -17.859375 L 22.898438 -19.210938 L 23.035156 -19.890625 L 22.96875 -20.902344 L 23.035156 -22.664062 L 22.628906 -23.273438 L 21.886719 -23.609375 L 21.207031 -23.675781 L 20.566406 -23.675781 L 19.820312 -23.609375 L 19.109375 -23.710938 L 18.503906 -23.644531 L 17.824219 -23.675781 L 17.015625 -23.339844 L 16.675781 -22.628906 L 16.640625 -16.472656 L 16.777344 -15.761719 L 16.777344 -15.121094 L 16.640625 -14.410156 L 16.675781 -13.054688 L 16.507812 -12.515625 L 16.03125 -12.652344 L 14.542969 -14.171875 L 14.039062 -14.578125 L 12.851562 -15.796875 L 12.3125 -16.203125 L 11.941406 -16.675781 L 11.230469 -17.417969 L 10.179688 -18.300781 L 9.808594 -18.808594 L 9.167969 -19.246094 L 8.828125 -19.753906 L 8.253906 -20.160156 L 7.8125 -20.734375 L 5.988281 -22.59375 L 4.632812 -23.507812 L 3.722656 -23.777344 L 2.910156 -23.375 L 2.46875 -22.730469 L 2.535156 -17.996094 L 2.46875 -17.320312 L 2.570312 -15.929688 L 2.503906 -15.324219 L 2.535156 -14.613281 L 2.433594 -13.902344 L 2.570312 -9.066406 L 2.503906 -8.457031 L 2.503906 -7.8125 L 2.433594 -7.070312 L 2.433594 -6.425781 L 2.535156 -5.714844 L 2.503906 -4.328125 L 2.570312 -3.652344 L 2.46875 -2.367188 L 2.570312 -1.691406 L 2.570312 -1.046875 L 2.875 -0.304688 L 3.519531 0.0664062 L 4.667969 0 L 6.359375 0.101562 L 7.070312 0 L 7.847656 0.0664062 L 8.523438 -0.269531 L 8.828125 -0.945312 L 8.726562 -1.625 L 8.828125 -9.910156 L 8.691406 -10.621094 L 9.03125 -11.027344 L 9.472656 -10.925781 L 14.308594 -6.191406 L 14.847656 -5.75 L 18.128906 -2.46875 L 18.570312 -1.929688 L 19.109375 -1.488281 L 19.515625 -0.980469 Z M 19.957031 -0.542969 "/></g></g></g><g fill="#ffffff" fill-opacity="1"><g transform="translate(120.432643, 49.678748)"><g/></g></g><g fill="#ffffff" fill-opacity="1"><g transform="translate(127.906378, 49.678748)"><g><path d="M 2.503906 -0.980469 L 2.808594 -0.371094 L 3.621094 0 L 7.339844 -0.0664062 L 8.355469 -0.371094 L 8.726562 -0.914062 L 8.792969 -1.554688 L 8.761719 -2.265625 L 8.660156 -2.976562 L 8.761719 -7.542969 L 8.625 -9.503906 L 8.929688 -9.976562 L 9.4375 -9.84375 L 10.28125 -8.792969 L 12.175781 -7 L 12.617188 -6.425781 L 13.734375 -5.511719 L 14.511719 -5.511719 L 15.085938 -5.917969 L 17.925781 -8.792969 L 18.367188 -9.371094 L 18.839844 -9.84375 L 19.246094 -9.910156 L 19.515625 -9.503906 L 19.617188 -8.828125 L 19.515625 -8.1875 L 19.550781 -7.578125 L 19.515625 -6.898438 L 19.617188 -5.648438 L 19.515625 -0.980469 L 19.855469 -0.269531 L 20.597656 0 L 24.660156 0.0351562 L 25.300781 -0.371094 L 25.671875 -1.082031 L 25.773438 -1.757812 L 25.640625 -5.816406 L 25.707031 -6.460938 L 25.640625 -7.78125 L 25.742188 -8.457031 L 25.707031 -9.132812 L 25.773438 -9.84375 L 25.707031 -10.519531 L 25.808594 -11.128906 L 25.707031 -20.699219 L 25.773438 -21.410156 L 25.707031 -21.984375 L 25.742188 -22.695312 L 25.367188 -23.339844 L 24.691406 -23.746094 L 23.675781 -23.441406 L 22.832031 -22.96875 L 22.054688 -22.019531 L 20.125 -20.023438 L 19.820312 -19.515625 L 14.816406 -14.207031 L 14.070312 -13.96875 L 13.460938 -14.171875 L 13.023438 -14.613281 L 12.617188 -15.1875 L 12.074219 -15.628906 L 11.667969 -16.167969 L 9.335938 -18.570312 L 8.523438 -19.585938 L 7.949219 -20.09375 L 7.507812 -20.566406 L 7.136719 -21.074219 L 6.664062 -21.511719 L 6.292969 -21.984375 L 5.546875 -22.765625 L 4.566406 -23.472656 L 3.585938 -23.746094 L 2.910156 -23.375 L 2.535156 -22.695312 L 2.46875 -21.984375 L 2.570312 -7.070312 L 2.433594 -6.425781 L 2.570312 -1.625 Z M 2.503906 -0.980469 "/></g></g></g><g fill="#ffffff" fill-opacity="1"><g transform="translate(154.488598, 49.678748)"><g><path d="M 7.78125 -0.945312 L 8.152344 -0.371094 L 8.792969 -0.0351562 L 10.011719 0.0351562 L 10.6875 -0.0351562 L 11.398438 0 L 12.347656 -0.0351562 L 13.359375 -0.371094 L 13.699219 -1.046875 L 13.699219 -1.625 L 13.632812 -2.332031 L 13.664062 -2.976562 L 13.632812 -3.585938 L 13.800781 -5.648438 L 13.699219 -6.359375 L 13.800781 -8.320312 L 13.664062 -8.929688 L 13.835938 -9.910156 L 15.019531 -11.972656 L 15.289062 -12.617188 L 15.660156 -13.191406 L 16.507812 -14.308594 L 20.394531 -20.734375 L 20.800781 -21.242188 L 21.039062 -21.851562 L 21.511719 -22.664062 L 21.410156 -23.472656 L 20.769531 -23.746094 L 20.09375 -23.644531 L 18.773438 -23.746094 L 18.0625 -23.644531 L 16.777344 -23.644531 L 16.132812 -23.710938 L 15.289062 -23.375 L 14.578125 -22.730469 L 14.003906 -21.582031 L 13.5625 -20.9375 L 13.359375 -20.296875 L 12.582031 -19.179688 L 12.074219 -17.960938 L 10.960938 -16.132812 L 10.484375 -16.066406 L 9.707031 -17.285156 L 9.402344 -17.894531 L 9.199219 -18.570312 L 7.507812 -21.546875 L 7.136719 -22.121094 L 6.867188 -22.796875 L 6.121094 -23.339844 L 5.277344 -23.710938 L 0.8125 -23.644531 L 0.0664062 -23.441406 L 0 -22.695312 L 0.339844 -21.886719 L 3.992188 -16.101562 L 4.261719 -15.527344 L 7.273438 -10.789062 L 7.542969 -9.910156 L 7.710938 -8.929688 L 7.679688 -6.257812 L 7.746094 -5.582031 L 7.78125 -4.9375 L 7.710938 -4.328125 L 7.679688 -3.042969 L 7.847656 -1.65625 Z M 7.78125 -0.945312 "/></g></g></g><g fill="#ffffff" fill-opacity="1"><g transform="translate(174.306754, 49.678748)"><g/></g></g><g fill="#ffffff" fill-opacity="1"><g transform="translate(181.780489, 49.678748)"><g><path d="M 2.503906 -0.980469 L 2.808594 -0.371094 L 3.621094 0 L 7.339844 -0.0664062 L 8.355469 -0.371094 L 8.726562 -0.914062 L 8.792969 -1.554688 L 8.761719 -2.265625 L 8.660156 -2.976562 L 8.761719 -7.542969 L 8.625 -9.503906 L 8.929688 -9.976562 L 9.4375 -9.84375 L 10.28125 -8.792969 L 12.175781 -7 L 12.617188 -6.425781 L 13.734375 -5.511719 L 14.511719 -5.511719 L 15.085938 -5.917969 L 17.925781 -8.792969 L 18.367188 -9.371094 L 18.839844 -9.84375 L 19.246094 -9.910156 L 19.515625 -9.503906 L 19.617188 -8.828125 L 19.515625 -8.1875 L 19.550781 -7.578125 L 19.515625 -6.898438 L 19.617188 -5.648438 L 19.515625 -0.980469 L 19.855469 -0.269531 L 20.597656 0 L 24.660156 0.0351562 L 25.300781 -0.371094 L 25.671875 -1.082031 L 25.773438 -1.757812 L 25.640625 -5.816406 L 25.707031 -6.460938 L 25.640625 -7.78125 L 25.742188 -8.457031 L 25.707031 -9.132812 L 25.773438 -9.84375 L 25.707031 -10.519531 L 25.808594 -11.128906 L 25.707031 -20.699219 L 25.773438 -21.410156 L 25.707031 -21.984375 L 25.742188 -22.695312 L 25.367188 -23.339844 L 24.691406 -23.746094 L 23.675781 -23.441406 L 22.832031 -22.96875 L 22.054688 -22.019531 L 20.125 -20.023438 L 19.820312 -19.515625 L 14.816406 -14.207031 L 14.070312 -13.96875 L 13.460938 -14.171875 L 13.023438 -14.613281 L 12.617188 -15.1875 L 12.074219 -15.628906 L 11.667969 -16.167969 L 9.335938 -18.570312 L 8.523438 -19.585938 L 7.949219 -20.09375 L 7.507812 -20.566406 L 7.136719 -21.074219 L 6.664062 -21.511719 L 6.292969 -21.984375 L 5.546875 -22.765625 L 4.566406 -23.472656 L 3.585938 -23.746094 L 2.910156 -23.375 L 2.535156 -22.695312 L 2.46875 -21.984375 L 2.570312 -7.070312 L 2.433594 -6.425781 L 2.570312 -1.625 Z M 2.503906 -0.980469 "/></g></g></g><g fill="#ffffff" fill-opacity="1"><g transform="translate(208.36271, 49.678748)"><g><path d="M 1.625 -0.980469 L 1.960938 -0.269531 L 2.636719 -0.0351562 L 12.683594 0.0351562 L 13.328125 -0.304688 L 13.699219 -0.914062 L 13.699219 -1.65625 L 13.632812 -2.265625 L 13.734375 -4.328125 L 13.257812 -4.90625 L 10.992188 -5.613281 L 10.621094 -6.292969 L 10.6875 -9.066406 L 10.554688 -10.417969 L 10.6875 -11.839844 L 10.621094 -12.851562 L 10.6875 -13.902344 L 10.621094 -14.542969 L 10.6875 -15.222656 L 10.621094 -15.929688 L 10.621094 -17.351562 L 10.992188 -17.960938 L 11.636719 -18.332031 L 12.378906 -18.367188 L 13.023438 -18.738281 L 13.394531 -19.382812 L 13.394531 -21.378906 L 13.460938 -21.984375 L 13.394531 -22.664062 L 13.125 -23.339844 L 12.042969 -23.644531 L 7.746094 -23.675781 L 7 -23.609375 L 4.9375 -23.644531 L 4.296875 -23.609375 L 2.976562 -23.675781 L 2.234375 -23.339844 L 1.859375 -22.628906 L 1.859375 -21.984375 L 1.792969 -21.410156 L 1.792969 -20.667969 L 1.859375 -19.992188 L 1.859375 -19.347656 L 2.199219 -18.707031 L 4.261719 -17.996094 L 4.703125 -17.386719 L 4.601562 -14.511719 L 4.632812 -13.9375 L 4.734375 -13.15625 L 4.703125 -11.769531 L 4.632812 -11.09375 L 4.769531 -9.777344 L 4.601562 -9.097656 L 4.734375 -7.644531 L 4.667969 -6.324219 L 4.328125 -5.582031 L 2.097656 -4.871094 L 1.691406 -4.226562 L 1.625 -3.585938 Z M 1.625 -0.980469 "/></g></g></g><g fill="#ffffff" fill-opacity="1"><g transform="translate(222.025558, 49.678748)"><g><path d="M 19.957031 -0.542969 L 20.9375 -0.101562 L 21.816406 0.167969 L 22.59375 -0.203125 L 22.898438 -0.914062 L 23.070312 -10.113281 L 22.933594 -11.0625 L 23 -11.804688 L 22.867188 -15.863281 L 22.96875 -17.21875 L 22.898438 -17.859375 L 22.898438 -19.210938 L 23.035156 -19.890625 L 22.96875 -20.902344 L 23.035156 -22.664062 L 22.628906 -23.273438 L 21.886719 -23.609375 L 21.207031 -23.675781 L 20.566406 -23.675781 L 19.820312 -23.609375 L 19.109375 -23.710938 L 18.503906 -23.644531 L 17.824219 -23.675781 L 17.015625 -23.339844 L 16.675781 -22.628906 L 16.640625 -16.472656 L 16.777344 -15.761719 L 16.777344 -15.121094 L 16.640625 -14.410156 L 16.675781 -13.054688 L 16.507812 -12.515625 L 16.03125 -12.652344 L 14.542969 -14.171875 L 14.039062 -14.578125 L 12.851562 -15.796875 L 12.3125 -16.203125 L 11.941406 -16.675781 L 11.230469 -17.417969 L 10.179688 -18.300781 L 9.808594 -18.808594 L 9.167969 -19.246094 L 8.828125 -19.753906 L 8.253906 -20.160156 L 7.8125 -20.734375 L 5.988281 -22.59375 L 4.632812 -23.507812 L 3.722656 -23.777344 L 2.910156 -23.375 L 2.46875 -22.730469 L 2.535156 -17.996094 L 2.46875 -17.320312 L 2.570312 -15.929688 L 2.503906 -15.324219 L 2.535156 -14.613281 L 2.433594 -13.902344 L 2.570312 -9.066406 L 2.503906 -8.457031 L 2.503906 -7.8125 L 2.433594 -7.070312 L 2.433594 -6.425781 L 2.535156 -5.714844 L 2.503906 -4.328125 L 2.570312 -3.652344 L 2.46875 -2.367188 L 2.570312 -1.691406 L 2.570312 -1.046875 L 2.875 -0.304688 L 3.519531 0.0664062 L 4.667969 0 L 6.359375 0.101562 L 7.070312 0 L 7.847656 0.0664062 L 8.523438 -0.269531 L 8.828125 -0.945312 L 8.726562 -1.625 L 8.828125 -9.910156 L 8.691406 -10.621094 L 9.03125 -11.027344 L 9.472656 -10.925781 L 14.308594 -6.191406 L 14.847656 -5.75 L 18.128906 -2.46875 L 18.570312 -1.929688 L 19.109375 -1.488281 L 19.515625 -0.980469 Z M 19.957031 -0.542969 "/></g></g></g><g fill="#ffffff" fill-opacity="1"><g transform="translate(245.834509, 49.678748)"><g><path d="M 2.535156 -1.046875 L 2.941406 -0.304688 L 3.484375 0 L 4.261719 0 L 4.972656 0.101562 L 5.648438 0.101562 L 6.359375 0 L 12.449219 -0.0351562 L 14.613281 -0.339844 L 16.574219 -0.945312 L 19.449219 -2.875 L 20.800781 -4.429688 L 21.851562 -6.121094 L 22.019531 -6.765625 L 22.359375 -7.40625 L 22.492188 -8.085938 L 22.730469 -8.691406 L 22.832031 -9.402344 L 23 -10.113281 L 22.96875 -10.6875 L 23.101562 -12.851562 L 22.59375 -14.78125 L 22.527344 -15.492188 L 22.359375 -16.101562 L 21.851562 -17.453125 L 21.074219 -18.605469 L 20.800781 -19.179688 L 19.921875 -20.226562 L 19.347656 -20.667969 L 18.402344 -21.582031 L 17.148438 -22.359375 L 16.472656 -22.695312 L 14.613281 -23.304688 L 13.226562 -23.574219 L 8.421875 -23.609375 L 7.746094 -23.675781 L 5.582031 -23.609375 L 4.90625 -23.675781 L 4.296875 -23.644531 L 3.585938 -23.675781 L 2.976562 -23.304688 L 2.46875 -22.664062 L 2.46875 -21.277344 L 2.535156 -20.597656 L 2.503906 -19.921875 L 2.570312 -18.636719 L 2.46875 -17.894531 L 2.570312 -17.21875 L 2.46875 -16.539062 L 2.605469 -13.835938 L 2.503906 -12.550781 L 2.605469 -11.09375 L 2.503906 -10.453125 L 2.605469 -9.742188 L 2.503906 -8.421875 L 2.570312 -5.714844 L 2.503906 -5.039062 L 2.605469 -2.332031 Z M 9.707031 -5.445312 L 8.894531 -5.75 L 8.589844 -6.496094 L 8.660156 -7.171875 L 8.523438 -7.78125 L 8.625 -8.457031 L 8.625 -17.148438 L 9.03125 -17.757812 L 10.011719 -18.128906 L 10.722656 -18.097656 L 11.433594 -18.128906 L 12.449219 -18.0625 L 13.800781 -17.65625 L 14.949219 -16.914062 L 15.796875 -15.964844 L 16.167969 -15.324219 L 16.609375 -14.78125 L 17.015625 -12.785156 L 17.117188 -11.738281 L 16.945312 -10.078125 L 16.742188 -9.4375 L 16.234375 -8.21875 L 15.796875 -7.609375 L 15.355469 -7.136719 L 14.949219 -6.597656 L 14.410156 -6.257812 L 13.734375 -5.917969 L 12.515625 -5.582031 Z M 9.707031 -5.445312 "/></g></g></g><g fill="#ffffff" fill-opacity="1"><g transform="translate(268.730312, 49.678748)"><g><path d="M 4.261719 0.136719 L 5.109375 0.167969 L 5.480469 0.0664062 L 5.816406 0.0664062 L 6.191406 -0.0664062 L 6.628906 -0.339844 L 6.898438 -0.472656 L 7.203125 -0.746094 L 7.507812 -1.082031 L 7.746094 -1.421875 L 8.050781 -2.46875 L 8.085938 -3.246094 L 7.949219 -3.652344 L 7.882812 -4.023438 L 7.679688 -4.464844 L 7.441406 -4.804688 L 7.203125 -5.007812 L 6.96875 -5.34375 L 6.597656 -5.546875 L 6.292969 -5.75 L 5.886719 -5.816406 L 5.445312 -5.988281 L 5.074219 -6.019531 L 4.296875 -5.988281 L 3.550781 -5.851562 L 3.113281 -5.714844 L 2.839844 -5.582031 L 2.164062 -5.007812 L 1.625 -4.429688 L 1.523438 -4.09375 L 1.351562 -3.722656 L 1.386719 -2.097656 L 1.488281 -1.726562 L 1.65625 -1.351562 L 1.859375 -1.082031 L 2.234375 -0.777344 L 2.402344 -0.507812 L 3.179688 -0.0664062 L 3.484375 0.0351562 L 3.921875 0.136719 Z M 4.261719 0.136719 "/></g></g></g></svg>